<svg width="100%" height="100%" viewBox="0 0 7127 5306" version="1.1" class="stroke-[9px] fill-transparent fill-current">
    <g id="SolarPanels" class="stroke-white stroke-[9px] group-hover:stroke-black">
        <path d="M4059.3,5020.88L4062.37,4757.65L4184.61,4547.43L4651.01,4243.45L4764.13,4301.76L4755.65,4561.14L4059.3,5020.88Z" class="stroke-[9px]"/>
        <path d="M4064.78,4614.41L4067.5,4346.6L4191.37,4133.51L4661.57,3834.51L4775.82,3894.7L4768.4,4158.53L4064.78,4614.41Z" />
        <path d="M4072.47,4066.39L4075.54,3790.32L4202.55,3573.32L4680.22,3277.94L4793.89,3342.78L4785.97,3614.87L4072.47,4066.39Z" />
        <path d="M4078.44,3639.03L4083.19,3356.02L4213.04,3134.3L4690.98,2847.33L4807.68,2915.1L4800,3191.74L4078.44,3639.03Z" />
        <path d="M4090.49,2719.03L4095.03,2423.29L4222.32,2200.67L4718.89,1915.89L4837.67,1990.61L4832.71,2281.57L4090.49,2719.03Z" />
        <path d="M4096.81,2258.72L4101.87,1957.59L4234.81,1731.19L4713.56,1463.3L4856.48,1535.69L4844.33,1830.3L4096.81,2258.72Z" />
        <path d="M3825.8,2266.14L3827.12,1964.75L3697.03,1734.63L3185.28,1454.04L3057.02,1539L3061.46,1839.48L3825.8,2266.14Z" />
        <path d="M3067.44,2323.12L3188.51,2249.26L3693.28,2535.48L3823.1,2760.26L3819.38,3050.51L3071.68,2615.08L3067.44,2323.12Z" />
        <path d="M3076.91,3192.09L3074.54,2912.7L3198.64,2841.79L3701.76,3140.61L3821.83,3353.57L3814.12,3634.11L3076.91,3192.09Z" />
        <path d="M3077.21,3342.64L3203.93,3268.25L3691.58,3572L3816.52,3786.09L3816.75,4062.3L3080.39,3616.32L3077.21,3342.64Z" />
        <path d="M3086.53,3895L3204.75,3831.54L3691.04,4127.48L3811.81,4344.55L3810.15,4611.72L3087.24,4160.04L3086.53,3895Z" />
        <path d="M3090.27,4302.96L3213.36,4238.84L3689.42,4546.93L3807.96,4756.57L3805.15,5019.04L3093.09,4560.13L3090.27,4302.96Z" />
    </g>
    <g id="Chassis">
        <path d="M3982.65,1730.4C3972.6,1734.37 3963.13,1734.09 3954.18,1729.94L3919.99,5118.91C3928.14,5125.09 3937.11,5125.68 3947.26,5118.27L3982.65,1730.4Z" style="fill:none;stroke:black;stroke-width:3px;"/>
        <path d="M4047.62,5106.27L4758.66,4634.21L4868.77,1271.86L4094.09,1704.2L4047.62,5106.27Z" style="fill:none;stroke:black;stroke-width:3px;"/>
        <path d="M3818.21,5105.24L3841.89,1704.93L3049.71,1273.3L3092.41,4634.83L3818.21,5105.24Z" style="fill:none;stroke:black;stroke-width:3px;"/>
        <path d="M3834.49,5098.19L3861.41,1699.61L3843.68,1707.46L3861.41,1699.61L3063.72,1262.14L3048.66,1273.23" style="fill:none;stroke:black;stroke-width:3px;"/>
        <path d="M4048.23,5106.34L4032.06,5098.08L4075.27,1698.54L4092.82,1706.91L4075.27,1698.54L4852.61,1262.3L4868.22,1272.28" style="fill:none;stroke:black;stroke-width:3px;"/>
        <path d="M3873.02,5090.13L3873.56,5157.32L3933.15,5194.16L3990.28,5156.12L3990.9,5093.31" style="fill:none;stroke:black;stroke-width:3px;"/>
        <path d="M3933.36,5124.46L3933.01,5194.28" style="fill:none;stroke:black;stroke-width:3px;"/>
        <path d="M3055.35,4561.85L3055.91,4626L3113.81,4663.02L3113.55,4650.37" style="fill:none;stroke:black;stroke-width:3px;"/>
        <path d="M4724,4657.5L4734.44,4663.61L4734.97,4650.04" style="fill:none;stroke:black;stroke-width:3px;"/>
        <path d="M3114.34,4663.01L3124.51,4656.53" style="fill:none;stroke:black;stroke-width:3px;"/>
        <path d="M3048.39,1273.63L3064.58,1262.29L3054.37,1258.12L3056.88,1246.31L3063.61,1242.2L3008.56,1211.29L3054.46,4559.09L3091.04,4583.04" style="fill:none;stroke:black;stroke-width:3px;"/>
        <path d="M4734.43,4663.53L4789.38,4625.51L4791.93,4562.89" style="fill:none;stroke:black;stroke-width:3px;"/>
        <path d="M4760.72,4580.9L4792.84,4558.26L4906.06,1209.76L4855.55,1241.14L4861.69,1247.87L4862.24,1257.76L4854.28,1262.28" style="fill:none;stroke:black;stroke-width:3px;"/>
        <path d="M4031.01,5063.2L3950.11,5118.63" style="fill:none;stroke:black;stroke-width:3px;"/>
        <path d="M3837.23,5065.06L3919.09,5119.96" style="fill:none;stroke:black;stroke-width:3px;"/>
    </g>
    <g id="Top-Panel" serif:id="Top Panel">
        <path d="M4037.18,1597.4L4049.74,1604.55L4823.1,1170.96L4747.53,1128.48L4782.09,1110.16L4781.48,1132.88L4767.25,1139.56" style="fill:none;stroke:black;stroke-width:3px;"/>
        <path d="M4824.53,1171.18L4826.07,1192.53L4045.67,1624.41L4037.22,1620.56" style="fill:none;stroke:black;stroke-width:3px;"/>
        <path d="M3903.58,1596.04L3891.69,1603.88L3095.67,1170.92L3170.08,1128.42L3137.04,1110.34" style="fill:none;stroke:black;stroke-width:3px;"/>
        <path d="M3983.32,1728.1L4034.74,1698.07L4034.71,1539.39L3969.39,1502.88L3904.68,1539.74L3902.81,1693.5L3954.39,1727.27" style="fill:none;stroke:black;stroke-width:3px;"/>
        <path d="M3906.28,1540.01L3970.07,1574.61L4032.78,1539.18" style="fill:none;stroke:black;stroke-width:3px;"/>
        <path d="M3970.57,1574.67L3969.3,1731.78" style="fill:none;stroke:black;stroke-width:3px;"/>
        <path d="M4905.89,1208.14L4909.84,1053.12L4844.98,1020.67L4784.1,1053.68L4780.87,1144.77" style="fill:none;stroke:black;stroke-width:3px;"/>
        <path d="M4784.92,1054.38L4848.34,1085.73L4909.05,1052.87" style="fill:none;stroke:black;stroke-width:3px;"/>
        <path d="M4849.99,1085.54L4845.1,1230.12" style="fill:none;stroke:black;stroke-width:3px;"/>
        <path d="M3885.34,683.672L3887.76,592.54L3946.8,559.594L4009.32,591.963L4010.45,682.928" style="fill:none;stroke:black;stroke-width:3px;"/>
        <path d="M3888.5,593.092L3948.47,624.263L4009.23,593.061" style="fill:none;stroke:black;stroke-width:3px;"/>
        <path d="M3948.77,624.393L3949.44,713.646" style="fill:none;stroke:black;stroke-width:3px;"/>
        <path d="M4781.07,1068.5L4022.77,680.01L3949.51,717.405L3873.56,679.249L3136.48,1067.17" style="fill:none;stroke:black;stroke-width:3px;"/>
        <path d="M3137.08,1110.03L3171.11,1128.44L3095.55,1170.97L3889.52,1602.85L3901.11,1597" style="fill:none;stroke:black;stroke-width:3px;"/>
        <path d="M4036.03,1596.4L4047.52,1603.37L4821.91,1169.28L4746.05,1127.34L4777.82,1109.8" style="fill:none;stroke:black;stroke-width:3px;"/>
        <path d="M4034.28,1619.6L4046.83,1625.47L4826.44,1191.09L4823.43,1171.06" style="fill:none;stroke:black;stroke-width:3px;"/>
        <path d="M3903.97,1618.9L3891.93,1624.89L3092.2,1191.32L3094.57,1170.94" style="fill:none;stroke:black;stroke-width:3px;"/>
        <path d="M4048.05,1602.71L4045.37,1623.25" style="fill:none;stroke:black;stroke-width:3px;"/>
        <path d="M3890.5,1603.47L3891.8,1623.5" style="fill:none;stroke:black;stroke-width:3px;"/>
        <path d="M3135.84,1131.62L3148.04,1140.66" style="fill:none;stroke:black;stroke-width:3px;"/>
        <path d="M3007.28,1208.52L3007.88,1053.27L3070.98,1019.76L3134.01,1052.83L3135.17,1145.96" style="fill:none;stroke:black;stroke-width:3px;"/>
        <path d="M3007.91,1052.89L3069.75,1086.47L3132.08,1052.8" style="fill:none;stroke:black;stroke-width:3px;"/>
        <path d="M3069.64,1085.7L3070.91,1232.39" style="fill:none;stroke:black;stroke-width:3px;"/>
    </g>
</svg>
